<svg xmlns="http://www.w3.org/2000/svg" viewBox="0 0 96 96" fill="none">
  <circle cx="48" cy="48" r="48" fill="#5c3d2e"/>
  <ellipse cx="48" cy="52" rx="28" ry="26" fill="#8b5a3c"/>
  <path fill="#3d4f7c" d="M20 38c8-14 48-14 56 0v10H20V38z"/>
  <circle cx="38" cy="50" r="5" fill="#1a1a1a"/>
  <circle cx="58" cy="50" r="5" fill="#1a1a1a"/>
  <circle cx="39" cy="49" r="1.5" fill="#fff"/>
  <circle cx="59" cy="49" r="1.5" fill="#fff"/>
  <ellipse cx="48" cy="60" rx="6" ry="4" fill="#4a2f22"/>
  <path fill="#6b442e" d="M14 28c-6 8-4 18 2 22 2-10 4-16 8-20-4-2-6-1-10-2zm68 0c6 8 4 18-2 22-2-10-4-16-8-20 4-2 6-1 10-2z"/>
</svg>
