<svg xmlns="http://www.w3.org/2000/svg" viewBox="0 0 96 96" fill="none">
  <circle cx="48" cy="48" r="48" fill="#c4956a"/>
  <ellipse cx="48" cy="52" rx="28" ry="26" fill="#e8b87a"/>
  <path fill="#c62828" d="M18 42c10-8 52-8 60 0v14c-12 6-48 6-60 0V42z"/>
  <path fill="#f9a825" d="M18 42h60v4c-8 4-20 6-30 6s-22-2-30-6v-4z"/>
  <circle cx="38" cy="50" r="5" fill="#1a1a1a"/>
  <circle cx="58" cy="50" r="5" fill="#1a1a1a"/>
  <circle cx="39" cy="49" r="1.5" fill="#fff"/>
  <circle cx="59" cy="49" r="1.5" fill="#fff"/>
  <ellipse cx="48" cy="62" rx="7" ry="5" fill="#c47a4a"/>
  <path fill="#d4a060" d="M12 30c-4 10-2 20 4 24 4-12 6-18 10-22-5-3-9-1-14-2zm72 0c4 10 2 20-4 24-4-12-6-18-10-22 5-3 9-1 14-2z"/>
</svg>
