<svg xmlns="http://www.w3.org/2000/svg" viewBox="0 0 96 96" fill="none">
  <circle cx="48" cy="48" r="48" fill="#6b4c35"/>
  <ellipse cx="48" cy="56" rx="32" ry="28" fill="#9a7048"/>
  <path fill="#e8dcc8" d="M14 34c6-16 62-16 68 0v8c-4 10-28 14-34 14s-30-4-34-14v-8z"/>
  <path fill="#c4a574" d="M14 34h68v4H14v-4z"/>
  <circle cx="36" cy="54" r="5" fill="#1a1a1a"/>
  <circle cx="60" cy="54" r="5" fill="#1a1a1a"/>
  <circle cx="37" cy="53" r="1.5" fill="#fff"/>
  <circle cx="61" cy="53" r="1.5" fill="#fff"/>
  <ellipse cx="48" cy="66" rx="8" ry="5" fill="#5c3d28"/>
  <path fill="#f4c430" d="M62 68c4 2 8 6 6 10-6-2-10-6-10-10h4z"/>
</svg>
